# xmcd CD database file
#
# Track frame offsets:
#	150
#	12316
#	25875
#	37363
#	49372
#	61044
#	78657
#	90835
#	100337
#	113093
#	126296
#	140206
#	151324
#	168014
#	183552
#	197646
#	213182
#	224653
#	238637
#	254014
#
# Disc length: 3533 seconds
#
# Revision: 0
# Processed by: cddbd v1.5.2PL0 Copyright (c) Steve Scherf et al.
# Submitted via: CDex 1.70beta2
#
DISCID=220dcb14
DTITLE=Oaks, J. Brian - Cdn. - Lost Highways- Hurtin' Songs
DYEAR=1900
DGENRE=Country
TTITLE0=How Many Times
TTITLE1=Hurtin' Somgs
TTITLE2=The Devil's Face
TTITLE3=Fraulien
TTITLE4=Bettedr Class of Losers
TTITLE5=I Overlooked An OLrchid
TTITLE6=Talk back Trembling Lips
TTITLE7=She's A Canadian Blizard
TTITLE8=That Don't Mean I Love
TTITLE9=There Go I
TTITLE10=Lost Highway
TTITLE11=Dimplechin
TTITLE12=Run Out of Reasons
TTITLE13=Too Much Woman
TTITLE14=Loving Her Troubles Away
TTITLE15=Sonny's Dream
TTITLE16=Fill'er Up Again
TTITLE17=Gypsy Wind
TTITLE18=Isn't My Love Strange
TTITLE19=New York City Cowboy
EXTD=
EXTT0=
EXTT1=
EXTT2=
EXTT3=
EXTT4=
EXTT5=
EXTT6=
EXTT7=
EXTT8=
EXTT9=
EXTT10=
EXTT11=
EXTT12=
EXTT13=
EXTT14=
EXTT15=
EXTT16=
EXTT17=
EXTT18=
EXTT19=
PLAYORDER=
